<svg version="1.0" xmlns="http://www.w3.org/2000/svg"
 width="409.000000pt" height="392.000000pt" viewBox="0 0 409.000000 392.000000"
 preserveAspectRatio="xMidYMid meet">

<g transform="translate(0.000000,392.000000) scale(0.100000,-0.100000)"
fill="#000000" stroke="none">
<path d="M1569 3213 c-266 -151 -565 -322 -664 -379 l-180 -103 -7 -53 c-9
-78 -9 -366 0 -372 5 -3 24 4 43 16 32 20 413 239 1027 590 l262 150 95 -56
c51 -31 96 -60 99 -64 4 -7 -635 -376 -1366 -789 -125 -71 -157 -93 -161 -113
-10 -46 -6 -389 4 -395 5 -4 60 23 122 58 105 61 376 217 722 417 83 48 317
183 520 300 204 117 407 235 453 262 l82 50 100 -58 c55 -32 100 -60 100 -64
0 -3 -138 -85 -307 -182 -170 -97 -474 -272 -678 -389 -203 -116 -534 -306
-735 -421 -201 -115 -369 -213 -374 -218 -12 -12 -20 -130 -12 -183 l7 -44
659 -377 c362 -207 663 -376 668 -376 11 0 109 54 292 160 69 39 213 122 320
183 107 60 247 140 310 177 63 37 181 105 263 151 l147 83 0 543 c0 299 -3
543 -6 543 -3 0 -224 -127 -492 -282 -268 -155 -597 -345 -732 -423 -342 -197
-460 -267 -460 -270 0 -2 21 -15 48 -30 26 -16 107 -63 179 -106 l132 -79 143
83 c515 301 810 468 815 463 4 -3 7 -54 7 -112 1 -82 -2 -108 -14 -118 -8 -7
-159 -95 -335 -196 -176 -101 -384 -221 -463 -267 -79 -46 -147 -83 -152 -83
-5 0 -123 66 -262 146 -139 80 -300 173 -358 207 -143 82 -150 86 -150 95 0 4
22 18 48 32 26 14 232 132 457 262 623 358 1515 869 1557 892 l38 21 0 115 0
115 -38 21 c-20 11 -112 64 -205 117 -92 54 -371 215 -620 358 -248 144 -455
263 -458 265 -3 2 -224 -121 -490 -273z"/>
</g>
</svg>
